# xmcd
#
# Track frame offsets: 
#        150
#        12705
#        24790
#        37687
#        48030
#        58570
#        69227
#        80502
#        92167
#        101450
#        112775
#        126145
#        139967
#        152757
#        165492
#
# Disc length: 2430 seconds
#
# Revision: 2
# Processed by: cddbd v1.5.2PL0 Copyright (c) Steve Scherf et al.
# Submitted via: ExactAudioCopy v0.99pb5
#
DISCID=ac097c0f
DTITLE=Various Artist - Classic Country Vol. 15 The Sixties Legends Disc 1
DYEAR=1999
DGENRE=Country
TTITLE0=Ray Price - One More Time
TTITLE1=Stonewall Jackson - A Wound Time Can't Erase
TTITLE2=Connie Smith - The Hurtin's All Over
TTITLE3=Buck Owens - Think Of Me
TTITLE4=Roger Miller - Engine Engine Number 9
TTITLE5=Don Gibson - Lonesome Number One
TTITLE6=Porter Wagoner And Dolly Parton - Holding On To Nothin'
TTITLE7=Jim Reeves - I Missed Me
TTITLE8=Tammy Wynette - Your Good Girl's Gonna Go Bad
TTITLE9=George Jones - I'll Share My World With You
TTITLE10=Sonny James - It's The Little Things
TTITLE11=Tom T. Hall - A Week In A Country Jail
TTITLE12=Merle Haggard - Sing Me Back Home
TTITLE13=Bill Anderson - 8 x 10
TTITLE14=Patsy Cline - Faded Love
EXTD=
EXTT0=
EXTT1=
EXTT2=
EXTT3=
EXTT4=
EXTT5=
EXTT6=
EXTT7=
EXTT8=
EXTT9=
EXTT10=
EXTT11=
EXTT12=
EXTT13=
EXTT14=
PLAYORDER=
